<?xml version="1.0" encoding="UTF-8"?>
<svg xmlns="http://www.w3.org/2000/svg" version="1.1" width="250" height="250" viewBox="0 0 250 250"><rect x="0" y="0" width="250" height="250" fill="#ffffff"/><g transform="scale(7.576)"><g transform="translate(0,0)"><path fill-rule="evenodd" d="M9 0L9 1L10 1L10 2L9 2L9 3L8 3L8 5L9 5L9 6L8 6L8 7L9 7L9 9L8 9L8 8L5 8L5 9L3 9L3 10L2 10L2 8L0 8L0 10L2 10L2 11L3 11L3 10L4 10L4 11L5 11L5 9L7 9L7 10L6 10L6 11L7 11L7 10L9 10L9 11L8 11L8 13L9 13L9 14L8 14L8 15L7 15L7 14L1 14L1 13L2 13L2 12L0 12L0 14L1 14L1 15L0 15L0 17L5 17L5 16L6 16L6 17L7 17L7 18L5 18L5 19L4 19L4 18L0 18L0 19L2 19L2 23L3 23L3 24L1 24L1 20L0 20L0 25L5 25L5 24L4 24L4 22L3 22L3 21L4 21L4 20L5 20L5 19L7 19L7 20L6 20L6 21L5 21L5 23L7 23L7 24L6 24L6 25L8 25L8 28L9 28L9 31L8 31L8 33L9 33L9 31L12 31L12 32L13 32L13 33L14 33L14 32L13 32L13 31L15 31L15 33L16 33L16 32L17 32L17 33L18 33L18 32L19 32L19 33L20 33L20 32L19 32L19 31L20 31L20 30L22 30L22 29L20 29L20 27L19 27L19 26L21 26L21 27L23 27L23 28L24 28L24 29L23 29L23 31L22 31L22 33L25 33L25 32L26 32L26 29L28 29L28 32L27 32L27 33L28 33L28 32L29 32L29 33L30 33L30 32L31 32L31 33L32 33L32 32L31 32L31 29L33 29L33 27L32 27L32 26L33 26L33 25L32 25L32 24L31 24L31 23L32 23L32 20L31 20L31 19L28 19L28 17L29 17L29 18L30 18L30 17L29 17L29 15L30 15L30 16L31 16L31 18L32 18L32 19L33 19L33 17L32 17L32 16L33 16L33 15L32 15L32 14L33 14L33 12L31 12L31 11L30 11L30 12L29 12L29 15L27 15L27 14L28 14L28 13L27 13L27 12L28 12L28 10L29 10L29 9L30 9L30 8L28 8L28 10L24 10L24 9L25 9L25 6L24 6L24 9L23 9L23 6L22 6L22 10L21 10L21 11L20 11L20 12L19 12L19 13L18 13L18 14L17 14L17 15L18 15L18 14L22 14L22 17L23 17L23 18L22 18L22 21L21 21L21 22L22 22L22 24L23 24L23 22L24 22L24 21L26 21L26 20L27 20L27 22L25 22L25 23L26 23L26 24L24 24L24 26L22 26L22 25L20 25L20 24L21 24L21 23L18 23L18 24L19 24L19 25L17 25L17 22L15 22L15 20L14 20L14 22L15 22L15 23L14 23L14 25L13 25L13 24L12 24L12 25L11 25L11 22L13 22L13 21L11 21L11 20L10 20L10 18L11 18L11 19L12 19L12 20L13 20L13 17L11 17L11 15L10 15L10 17L9 17L9 16L8 16L8 15L9 15L9 14L12 14L12 16L13 16L13 13L14 13L14 19L16 19L16 18L17 18L17 19L18 19L18 18L19 18L19 19L20 19L20 20L21 20L21 19L20 19L20 18L21 18L21 17L20 17L20 15L19 15L19 17L18 17L18 16L16 16L16 13L17 13L17 11L18 11L18 10L20 10L20 9L19 9L19 8L16 8L16 7L17 7L17 6L18 6L18 7L19 7L19 5L20 5L20 7L21 7L21 4L22 4L22 5L24 5L24 4L25 4L25 1L24 1L24 2L21 2L21 4L19 4L19 5L17 5L17 6L16 6L16 7L15 7L15 5L14 5L14 4L11 4L11 1L10 1L10 0ZM12 0L12 3L13 3L13 0ZM14 0L14 3L15 3L15 0ZM16 0L16 1L17 1L17 0ZM18 0L18 2L19 2L19 3L20 3L20 2L19 2L19 0ZM21 0L21 1L23 1L23 0ZM9 3L9 5L11 5L11 7L10 7L10 6L9 6L9 7L10 7L10 8L11 8L11 9L14 9L14 5L13 5L13 8L12 8L12 5L11 5L11 4L10 4L10 3ZM17 3L17 4L18 4L18 3ZM22 3L22 4L23 4L23 3ZM9 9L9 10L10 10L10 11L9 11L9 12L10 12L10 11L11 11L11 12L12 12L12 13L13 13L13 12L14 12L14 13L16 13L16 11L15 11L15 10L13 10L13 12L12 12L12 10L10 10L10 9ZM31 9L31 10L32 10L32 9ZM22 10L22 11L21 11L21 12L20 12L20 13L22 13L22 14L23 14L23 17L24 17L24 19L23 19L23 20L24 20L24 19L27 19L27 18L26 18L26 17L27 17L27 16L26 16L26 11L25 11L25 12L24 12L24 14L23 14L23 13L22 13L22 11L24 11L24 10ZM14 11L14 12L15 12L15 11ZM5 12L5 13L7 13L7 12ZM30 12L30 15L31 15L31 16L32 16L32 15L31 15L31 12ZM24 14L24 15L25 15L25 14ZM1 15L1 16L5 16L5 15ZM6 15L6 16L7 16L7 15ZM25 16L25 17L26 17L26 16ZM15 17L15 18L16 18L16 17ZM17 17L17 18L18 18L18 17ZM8 18L8 20L7 20L7 21L6 21L6 22L7 22L7 21L8 21L8 22L10 22L10 21L8 21L8 20L9 20L9 18ZM17 20L17 21L18 21L18 20ZM29 20L29 22L27 22L27 24L29 24L29 22L31 22L31 20ZM19 21L19 22L20 22L20 21ZM8 23L8 24L9 24L9 25L10 25L10 27L9 27L9 28L10 28L10 30L11 30L11 29L13 29L13 30L14 30L14 29L17 29L17 28L18 28L18 29L19 29L19 27L18 27L18 26L17 26L17 25L16 25L16 24L15 24L15 25L14 25L14 26L11 26L11 25L10 25L10 23ZM30 24L30 26L29 26L29 27L31 27L31 28L30 28L30 29L31 29L31 28L32 28L32 27L31 27L31 26L32 26L32 25L31 25L31 24ZM15 25L15 26L14 26L14 27L15 27L15 28L16 28L16 27L17 27L17 26L16 26L16 25ZM25 25L25 28L28 28L28 25ZM26 26L26 27L27 27L27 26ZM12 27L12 28L13 28L13 29L14 29L14 28L13 28L13 27ZM17 30L17 32L18 32L18 31L19 31L19 30ZM32 30L32 31L33 31L33 30ZM23 31L23 32L25 32L25 31ZM0 0L0 7L7 7L7 0ZM1 1L1 6L6 6L6 1ZM2 2L2 5L5 5L5 2ZM26 0L26 7L33 7L33 0ZM27 1L27 6L32 6L32 1ZM28 2L28 5L31 5L31 2ZM0 26L0 33L7 33L7 26ZM1 27L1 32L6 32L6 27ZM2 28L2 31L5 31L5 28Z" fill="#000000"/></g></g></svg>
