<?xml version="1.0" encoding="UTF-8"?>
<svg xmlns="http://www.w3.org/2000/svg" version="1.1" width="250" height="250" viewBox="0 0 250 250"><rect x="0" y="0" width="250" height="250" fill="#ffffff"/><g transform="scale(11.905)"><g transform="translate(0,0)"><path fill-rule="evenodd" d="M10 0L10 3L9 3L9 2L8 2L8 3L9 3L9 6L8 6L8 8L4 8L4 9L3 9L3 8L0 8L0 9L1 9L1 11L0 11L0 12L1 12L1 13L5 13L5 12L6 12L6 13L7 13L7 12L6 12L6 11L9 11L9 6L10 6L10 10L12 10L12 11L10 11L10 12L9 12L9 13L8 13L8 17L9 17L9 18L8 18L8 21L10 21L10 20L11 20L11 19L12 19L12 18L13 18L13 17L15 17L15 14L16 14L16 17L17 17L17 18L18 18L18 20L20 20L20 21L21 21L21 18L20 18L20 17L19 17L19 18L18 18L18 17L17 17L17 16L18 16L18 15L17 15L17 14L16 14L16 13L17 13L17 11L16 11L16 12L15 12L15 13L14 13L14 12L12 12L12 11L15 11L15 10L17 10L17 9L15 9L15 8L12 8L12 7L13 7L13 6L12 6L12 5L13 5L13 4L12 4L12 3L13 3L13 2L12 2L12 1L13 1L13 0L12 0L12 1L11 1L11 0ZM11 2L11 3L10 3L10 5L12 5L12 4L11 4L11 3L12 3L12 2ZM11 6L11 7L12 7L12 6ZM11 8L11 9L12 9L12 10L15 10L15 9L12 9L12 8ZM18 8L18 10L19 10L19 8ZM2 9L2 10L3 10L3 12L4 12L4 10L3 10L3 9ZM5 9L5 10L8 10L8 9ZM19 11L19 13L18 13L18 14L19 14L19 13L20 13L20 14L21 14L21 12L20 12L20 11ZM10 12L10 13L9 13L9 16L10 16L10 17L11 17L11 18L12 18L12 15L10 15L10 14L13 14L13 16L14 16L14 13L12 13L12 12ZM20 15L20 16L21 16L21 15ZM14 18L14 19L13 19L13 20L12 20L12 21L13 21L13 20L14 20L14 21L17 21L17 19L16 19L16 18ZM19 18L19 19L20 19L20 18ZM9 19L9 20L10 20L10 19ZM14 19L14 20L16 20L16 19ZM0 0L0 7L7 7L7 0ZM1 1L1 6L6 6L6 1ZM2 2L2 5L5 5L5 2ZM14 0L14 7L21 7L21 0ZM15 1L15 6L20 6L20 1ZM16 2L16 5L19 5L19 2ZM0 14L0 21L7 21L7 14ZM1 15L1 20L6 20L6 15ZM2 16L2 19L5 19L5 16Z" fill="#000000"/></g></g></svg>
