<?xml version="1.0" encoding="UTF-8"?>
<svg xmlns="http://www.w3.org/2000/svg" version="1.1" width="250" height="250" viewBox="0 0 250 250"><rect x="0" y="0" width="250" height="250" fill="#ffffff"/><g transform="scale(7.576)"><g transform="translate(0,0)"><path fill-rule="evenodd" d="M9 0L9 1L8 1L8 2L9 2L9 3L8 3L8 4L10 4L10 3L11 3L11 2L10 2L10 1L12 1L12 3L13 3L13 1L14 1L14 4L11 4L11 5L10 5L10 7L11 7L11 5L12 5L12 8L13 8L13 5L14 5L14 9L11 9L11 8L6 8L6 9L5 9L5 8L0 8L0 10L1 10L1 9L2 9L2 10L3 10L3 11L0 11L0 12L1 12L1 13L0 13L0 14L1 14L1 13L2 13L2 12L3 12L3 15L4 15L4 16L5 16L5 17L4 17L4 19L5 19L5 18L6 18L6 19L7 19L7 18L6 18L6 17L7 17L7 16L8 16L8 18L9 18L9 15L11 15L11 14L12 14L12 16L13 16L13 13L10 13L10 12L11 12L11 11L10 11L10 9L11 9L11 10L12 10L12 12L13 12L13 10L14 10L14 9L17 9L17 10L15 10L15 11L14 11L14 15L16 15L16 16L14 16L14 18L13 18L13 17L10 17L10 18L12 18L12 20L13 20L13 19L14 19L14 18L15 18L15 20L14 20L14 21L15 21L15 23L14 23L14 24L10 24L10 22L8 22L8 23L7 23L7 22L6 22L6 21L7 21L7 20L5 20L5 21L4 21L4 20L3 20L3 21L2 21L2 16L1 16L1 15L0 15L0 18L1 18L1 21L0 21L0 25L1 25L1 21L2 21L2 23L3 23L3 21L4 21L4 22L6 22L6 23L4 23L4 24L3 24L3 25L5 25L5 24L6 24L6 25L7 25L7 24L8 24L8 27L9 27L9 26L10 26L10 25L11 25L11 26L14 26L14 28L13 28L13 27L12 27L12 28L13 28L13 29L10 29L10 28L11 28L11 27L10 27L10 28L8 28L8 33L9 33L9 31L10 31L10 33L11 33L11 31L10 31L10 30L12 30L12 32L13 32L13 33L14 33L14 32L13 32L13 29L14 29L14 30L15 30L15 31L16 31L16 32L15 32L15 33L16 33L16 32L17 32L17 33L18 33L18 32L19 32L19 33L20 33L20 32L19 32L19 31L18 31L18 30L20 30L20 31L21 31L21 32L22 32L22 33L25 33L25 32L26 32L26 31L27 31L27 33L28 33L28 32L29 32L29 33L30 33L30 32L31 32L31 33L32 33L32 32L31 32L31 31L32 31L32 30L31 30L31 29L33 29L33 28L31 28L31 27L32 27L32 26L33 26L33 24L32 24L32 26L31 26L31 27L29 27L29 26L30 26L30 25L29 25L29 24L31 24L31 23L32 23L32 22L33 22L33 21L32 21L32 20L31 20L31 19L32 19L32 18L33 18L33 17L32 17L32 16L31 16L31 15L32 15L32 14L33 14L33 13L31 13L31 15L30 15L30 13L29 13L29 12L28 12L28 13L29 13L29 15L30 15L30 16L31 16L31 19L30 19L30 17L29 17L29 16L27 16L27 17L26 17L26 16L25 16L25 17L26 17L26 18L25 18L25 19L24 19L24 20L23 20L23 19L21 19L21 18L22 18L22 17L23 17L23 18L24 18L24 17L23 17L23 16L22 16L22 15L23 15L23 14L24 14L24 15L25 15L25 14L24 14L24 13L23 13L23 14L22 14L22 15L19 15L19 17L18 17L18 16L17 16L17 15L18 15L18 14L21 14L21 12L25 12L25 13L26 13L26 15L27 15L27 13L26 13L26 12L27 12L27 11L28 11L28 8L27 8L27 9L26 9L26 8L25 8L25 6L24 6L24 9L23 9L23 6L22 6L22 5L24 5L24 4L25 4L25 1L24 1L24 0L23 0L23 1L24 1L24 2L22 2L22 0L17 0L17 1L18 1L18 2L19 2L19 3L20 3L20 4L19 4L19 5L17 5L17 6L16 6L16 5L14 5L14 4L18 4L18 3L15 3L15 2L16 2L16 1L14 1L14 0ZM19 1L19 2L20 2L20 3L21 3L21 5L22 5L22 3L21 3L21 1ZM8 5L8 7L9 7L9 5ZM19 5L19 7L18 7L18 6L17 6L17 7L16 7L16 6L15 6L15 8L19 8L19 9L22 9L22 11L24 11L24 10L26 10L26 9L24 9L24 10L23 10L23 9L22 9L22 8L21 8L21 7L22 7L22 6L21 6L21 7L20 7L20 5ZM29 8L29 9L30 9L30 8ZM31 8L31 10L33 10L33 9L32 9L32 8ZM4 9L4 11L5 11L5 12L9 12L9 10L8 10L8 9L6 9L6 10L7 10L7 11L5 11L5 9ZM18 10L18 11L17 11L17 12L15 12L15 14L16 14L16 15L17 15L17 14L18 14L18 13L20 13L20 11L21 11L21 10ZM25 11L25 12L26 12L26 11ZM30 11L30 12L31 12L31 11ZM17 12L17 13L18 13L18 12ZM4 13L4 15L5 15L5 14L8 14L8 15L9 15L9 14L10 14L10 13L9 13L9 14L8 14L8 13ZM6 15L6 16L7 16L7 15ZM20 16L20 17L22 17L22 16ZM17 17L17 19L16 19L16 20L15 20L15 21L17 21L17 24L16 24L16 23L15 23L15 24L14 24L14 26L17 26L17 28L16 28L16 27L15 27L15 28L14 28L14 29L15 29L15 30L16 30L16 31L17 31L17 32L18 32L18 31L17 31L17 30L16 30L16 29L17 29L17 28L18 28L18 29L19 29L19 27L21 27L21 26L24 26L24 25L22 25L22 24L21 24L21 26L19 26L19 27L18 27L18 26L17 26L17 24L18 24L18 25L20 25L20 24L18 24L18 23L22 23L22 22L23 22L23 24L26 24L26 23L25 23L25 22L26 22L26 21L27 21L27 23L28 23L28 24L29 24L29 22L31 22L31 20L29 20L29 21L27 21L27 20L28 20L28 19L27 19L27 20L26 20L26 21L24 21L24 22L23 22L23 21L22 21L22 20L20 20L20 18L18 18L18 17ZM27 17L27 18L29 18L29 17ZM9 19L9 20L10 20L10 19ZM17 20L17 21L18 21L18 20ZM11 21L11 22L13 22L13 21ZM19 21L19 22L21 22L21 21ZM6 23L6 24L7 24L7 23ZM8 23L8 24L9 24L9 23ZM25 25L25 28L28 28L28 25ZM26 26L26 27L27 27L27 26ZM20 28L20 29L21 29L21 31L22 31L22 30L23 30L23 32L25 32L25 31L26 31L26 30L27 30L27 31L30 31L30 30L27 30L27 29L26 29L26 30L25 30L25 31L24 31L24 30L23 30L23 29L24 29L24 28ZM30 28L30 29L31 29L31 28ZM9 29L9 30L10 30L10 29ZM0 0L0 7L7 7L7 0ZM1 1L1 6L6 6L6 1ZM2 2L2 5L5 5L5 2ZM26 0L26 7L33 7L33 0ZM27 1L27 6L32 6L32 1ZM28 2L28 5L31 5L31 2ZM0 26L0 33L7 33L7 26ZM1 27L1 32L6 32L6 27ZM2 28L2 31L5 31L5 28Z" fill="#000000"/></g></g></svg>
