<?xml version="1.0" encoding="UTF-8"?>
<svg xmlns="http://www.w3.org/2000/svg" version="1.1" width="250" height="250" viewBox="0 0 250 250"><rect x="0" y="0" width="250" height="250" fill="#ffffff"/><g transform="scale(7.576)"><g transform="translate(0,0)"><path fill-rule="evenodd" d="M11 0L11 1L10 1L10 2L11 2L11 5L10 5L10 3L9 3L9 1L8 1L8 3L9 3L9 4L8 4L8 8L6 8L6 9L5 9L5 10L4 10L4 8L3 8L3 9L2 9L2 8L0 8L0 9L1 9L1 11L0 11L0 16L1 16L1 17L2 17L2 19L3 19L3 20L0 20L0 21L4 21L4 22L0 22L0 23L1 23L1 24L0 24L0 25L1 25L1 24L2 24L2 25L8 25L8 27L9 27L9 29L8 29L8 30L10 30L10 31L11 31L11 33L12 33L12 31L13 31L13 30L14 30L14 31L15 31L15 30L14 30L14 29L16 29L16 31L17 31L17 32L16 32L16 33L17 33L17 32L18 32L18 28L19 28L19 26L21 26L21 25L22 25L22 26L24 26L24 29L23 29L23 30L24 30L24 31L23 31L23 32L24 32L24 33L25 33L25 32L26 32L26 31L25 31L25 30L24 30L24 29L26 29L26 30L27 30L27 32L28 32L28 33L29 33L29 32L28 32L28 31L29 31L29 30L30 30L30 31L33 31L33 29L31 29L31 30L30 30L30 28L29 28L29 27L30 27L30 26L31 26L31 28L32 28L32 26L33 26L33 25L32 25L32 26L31 26L31 25L30 25L30 26L29 26L29 24L30 24L30 23L31 23L31 24L33 24L33 21L32 21L32 20L31 20L31 21L30 21L30 20L29 20L29 24L28 24L28 22L27 22L27 21L26 21L26 20L27 20L27 19L26 19L26 17L27 17L27 16L26 16L26 15L29 15L29 16L28 16L28 17L29 17L29 19L30 19L30 18L31 18L31 19L33 19L33 18L31 18L31 17L29 17L29 16L30 16L30 15L29 15L29 13L28 13L28 12L26 12L26 11L25 11L25 10L28 10L28 9L29 9L29 10L31 10L31 12L32 12L32 13L30 13L30 14L31 14L31 16L32 16L32 17L33 17L33 16L32 16L32 14L33 14L33 9L32 9L32 8L30 8L30 9L29 9L29 8L26 8L26 9L25 9L25 8L24 8L24 7L25 7L25 5L24 5L24 4L23 4L23 3L22 3L22 4L21 4L21 3L20 3L20 2L19 2L19 3L18 3L18 1L20 1L20 0ZM22 0L22 1L21 1L21 2L24 2L24 3L25 3L25 2L24 2L24 0ZM12 1L12 2L13 2L13 3L14 3L14 1ZM17 3L17 4L16 4L16 6L15 6L15 5L14 5L14 4L13 4L13 5L11 5L11 7L12 7L12 9L11 9L11 8L10 8L10 5L9 5L9 8L8 8L8 10L7 10L7 9L6 9L6 10L7 10L7 11L6 11L6 12L5 12L5 13L4 13L4 11L1 11L1 13L4 13L4 14L5 14L5 15L4 15L4 17L5 17L5 18L3 18L3 19L5 19L5 18L7 18L7 17L8 17L8 19L6 19L6 20L7 20L7 21L5 21L5 20L4 20L4 21L5 21L5 23L3 23L3 24L5 24L5 23L6 23L6 24L8 24L8 25L9 25L9 26L10 26L10 29L12 29L12 30L11 30L11 31L12 31L12 30L13 30L13 29L14 29L14 28L13 28L13 27L14 27L14 26L15 26L15 28L16 28L16 29L17 29L17 28L16 28L16 27L17 27L17 26L19 26L19 25L21 25L21 23L19 23L19 22L20 22L20 21L21 21L21 22L23 22L23 24L22 24L22 25L23 25L23 24L24 24L24 23L26 23L26 24L27 24L27 22L24 22L24 20L25 20L25 18L23 18L23 17L26 17L26 16L23 16L23 14L24 14L24 13L25 13L25 15L26 15L26 13L25 13L25 11L24 11L24 9L23 9L23 7L24 7L24 5L22 5L22 6L21 6L21 4L18 4L18 3ZM13 5L13 6L12 6L12 7L13 7L13 6L14 6L14 9L15 9L15 6L14 6L14 5ZM17 5L17 6L16 6L16 8L18 8L18 9L19 9L19 6L20 6L20 7L21 7L21 9L20 9L20 10L19 10L19 11L18 11L18 10L16 10L16 11L15 11L15 10L12 10L12 11L13 11L13 12L14 12L14 11L15 11L15 13L14 13L14 15L13 15L13 14L11 14L11 15L10 15L10 14L9 14L9 13L8 13L8 14L6 14L6 13L7 13L7 12L6 12L6 13L5 13L5 14L6 14L6 15L5 15L5 16L6 16L6 17L7 17L7 16L6 16L6 15L8 15L8 14L9 14L9 15L10 15L10 19L9 19L9 20L8 20L8 21L7 21L7 22L6 22L6 23L7 23L7 22L8 22L8 21L9 21L9 20L10 20L10 19L11 19L11 21L10 21L10 22L9 22L9 23L8 23L8 24L9 24L9 25L10 25L10 24L9 24L9 23L11 23L11 21L12 21L12 19L15 19L15 20L14 20L14 21L13 21L13 23L12 23L12 24L11 24L11 25L13 25L13 26L14 26L14 25L16 25L16 26L17 26L17 25L18 25L18 24L17 24L17 22L19 22L19 21L17 21L17 20L19 20L19 19L15 19L15 18L17 18L17 17L18 17L18 16L19 16L19 15L17 15L17 14L18 14L18 12L20 12L20 11L21 11L21 13L19 13L19 14L21 14L21 15L20 15L20 17L21 17L21 19L20 19L20 20L21 20L21 21L22 21L22 19L23 19L23 20L24 20L24 19L23 19L23 18L22 18L22 17L23 17L23 16L22 16L22 14L23 14L23 12L24 12L24 11L21 11L21 10L22 10L22 7L23 7L23 6L22 6L22 7L21 7L21 6L20 6L20 5L19 5L19 6L18 6L18 5ZM17 6L17 7L18 7L18 6ZM9 9L9 10L8 10L8 12L10 12L10 13L11 13L11 11L9 11L9 10L10 10L10 9ZM31 9L31 10L32 10L32 9ZM17 11L17 12L18 12L18 11ZM15 13L15 15L14 15L14 18L15 18L15 17L16 17L16 13ZM21 13L21 14L22 14L22 13ZM27 13L27 14L28 14L28 13ZM1 14L1 15L2 15L2 14ZM12 15L12 16L11 16L11 17L12 17L12 18L11 18L11 19L12 19L12 18L13 18L13 15ZM2 16L2 17L3 17L3 16ZM8 16L8 17L9 17L9 16ZM0 18L0 19L1 19L1 18ZM14 21L14 22L15 22L15 23L14 23L14 24L16 24L16 22L15 22L15 21ZM31 21L31 23L32 23L32 21ZM25 25L25 28L28 28L28 25ZM11 26L11 28L12 28L12 26ZM26 26L26 27L27 27L27 26ZM20 27L20 29L22 29L22 28L23 28L23 27ZM21 30L21 33L22 33L22 30ZM8 31L8 33L10 33L10 32L9 32L9 31ZM13 32L13 33L14 33L14 32ZM19 32L19 33L20 33L20 32ZM31 32L31 33L32 33L32 32ZM0 0L0 7L7 7L7 0ZM1 1L1 6L6 6L6 1ZM2 2L2 5L5 5L5 2ZM26 0L26 7L33 7L33 0ZM27 1L27 6L32 6L32 1ZM28 2L28 5L31 5L31 2ZM0 26L0 33L7 33L7 26ZM1 27L1 32L6 32L6 27ZM2 28L2 31L5 31L5 28Z" fill="#000000"/></g></g></svg>
