<?xml version="1.0" encoding="UTF-8"?>
<svg xmlns="http://www.w3.org/2000/svg" version="1.1" width="250" height="250" viewBox="0 0 250 250"><rect x="0" y="0" width="250" height="250" fill="#ffffff"/><g transform="scale(11.905)"><g transform="translate(0,0)"><path fill-rule="evenodd" d="M8 0L8 4L9 4L9 5L8 5L8 7L9 7L9 5L10 5L10 7L11 7L11 8L12 8L12 10L11 10L11 12L10 12L10 11L8 11L8 10L10 10L10 9L7 9L7 8L4 8L4 9L2 9L2 8L0 8L0 12L1 12L1 9L2 9L2 12L3 12L3 13L4 13L4 12L6 12L6 13L7 13L7 12L6 12L6 11L8 11L8 14L9 14L9 15L8 15L8 17L9 17L9 18L10 18L10 19L8 19L8 21L9 21L9 20L11 20L11 18L12 18L12 19L13 19L13 18L12 18L12 17L13 17L13 16L14 16L14 18L16 18L16 17L15 17L15 15L17 15L17 16L18 16L18 15L19 15L19 17L18 17L18 18L17 18L17 19L18 19L18 20L19 20L19 21L21 21L21 19L20 19L20 20L19 20L19 19L18 19L18 18L21 18L21 17L20 17L20 16L21 16L21 14L20 14L20 15L19 15L19 14L18 14L18 13L17 13L17 14L15 14L15 15L12 15L12 17L9 17L9 15L10 15L10 14L13 14L13 12L14 12L14 10L15 10L15 11L16 11L16 10L17 10L17 11L19 11L19 10L18 10L18 9L20 9L20 11L21 11L21 8L17 8L17 9L16 9L16 8L15 8L15 9L14 9L14 10L13 10L13 8L12 8L12 7L13 7L13 4L12 4L12 2L13 2L13 0L12 0L12 2L9 2L9 1L10 1L10 0ZM11 4L11 7L12 7L12 4ZM6 9L6 10L4 10L4 11L3 11L3 12L4 12L4 11L6 11L6 10L7 10L7 9ZM15 9L15 10L16 10L16 9ZM12 10L12 12L11 12L11 13L12 13L12 12L13 12L13 10ZM9 12L9 13L10 13L10 12ZM15 12L15 13L16 13L16 12ZM20 12L20 13L21 13L21 12ZM12 20L12 21L16 21L16 20ZM0 0L0 7L7 7L7 0ZM1 1L1 6L6 6L6 1ZM2 2L2 5L5 5L5 2ZM14 0L14 7L21 7L21 0ZM15 1L15 6L20 6L20 1ZM16 2L16 5L19 5L19 2ZM0 14L0 21L7 21L7 14ZM1 15L1 20L6 20L6 15ZM2 16L2 19L5 19L5 16Z" fill="#000000"/></g></g></svg>
