<?xml version="1.0" encoding="UTF-8"?>
<svg xmlns="http://www.w3.org/2000/svg" version="1.1" width="250" height="250" viewBox="0 0 250 250"><rect x="0" y="0" width="250" height="250" fill="#ffffff"/><g transform="scale(7.576)"><g transform="translate(0,0)"><path fill-rule="evenodd" d="M8 0L8 1L9 1L9 2L8 2L8 5L9 5L9 4L11 4L11 5L10 5L10 10L6 10L6 9L7 9L7 8L6 8L6 9L5 9L5 10L3 10L3 9L4 9L4 8L0 8L0 9L2 9L2 10L0 10L0 12L1 12L1 13L0 13L0 16L2 16L2 17L3 17L3 18L4 18L4 17L5 17L5 19L4 19L4 20L3 20L3 21L1 21L1 20L2 20L2 18L1 18L1 17L0 17L0 19L1 19L1 20L0 20L0 22L2 22L2 23L1 23L1 24L0 24L0 25L1 25L1 24L2 24L2 23L4 23L4 24L3 24L3 25L7 25L7 24L8 24L8 26L9 26L9 25L10 25L10 24L8 24L8 23L7 23L7 22L5 22L5 23L4 23L4 22L3 22L3 21L5 21L5 20L6 20L6 21L7 21L7 20L8 20L8 22L9 22L9 23L11 23L11 26L10 26L10 27L9 27L9 29L8 29L8 33L9 33L9 31L12 31L12 32L11 32L11 33L14 33L14 32L13 32L13 30L14 30L14 29L12 29L12 28L14 28L14 27L15 27L15 31L17 31L17 32L16 32L16 33L17 33L17 32L18 32L18 33L22 33L22 32L23 32L23 29L25 29L25 30L24 30L24 32L25 32L25 33L26 33L26 32L27 32L27 33L28 33L28 32L30 32L30 33L31 33L31 32L30 32L30 29L32 29L32 30L33 30L33 29L32 29L32 28L33 28L33 27L31 27L31 26L30 26L30 24L29 24L29 23L28 23L28 24L26 24L26 23L27 23L27 22L28 22L28 21L26 21L26 20L29 20L29 21L30 21L30 22L31 22L31 24L32 24L32 25L33 25L33 24L32 24L32 23L33 23L33 21L31 21L31 20L30 20L30 18L31 18L31 19L32 19L32 20L33 20L33 19L32 19L32 18L33 18L33 16L31 16L31 14L32 14L32 13L30 13L30 14L28 14L28 15L27 15L27 14L26 14L26 13L24 13L24 14L25 14L25 15L26 15L26 20L25 20L25 22L24 22L24 19L22 19L22 20L21 20L21 21L20 21L20 19L17 19L17 20L18 20L18 21L17 21L17 23L16 23L16 24L15 24L15 22L14 22L14 23L11 23L11 20L12 20L12 19L10 19L10 20L9 20L9 19L8 19L8 18L6 18L6 17L8 17L8 16L9 16L9 18L10 18L10 16L9 16L9 15L8 15L8 16L3 16L3 15L1 15L1 13L4 13L4 15L5 15L5 12L4 12L4 11L8 11L8 12L6 12L6 13L7 13L7 14L6 14L6 15L7 15L7 14L8 14L8 13L9 13L9 14L10 14L10 13L11 13L11 16L12 16L12 17L13 17L13 16L12 16L12 14L13 14L13 13L14 13L14 11L15 11L15 9L14 9L14 11L13 11L13 6L14 6L14 8L15 8L15 6L14 6L14 5L13 5L13 4L14 4L14 2L15 2L15 0L14 0L14 2L13 2L13 0L12 0L12 1L11 1L11 0L10 0L10 1L9 1L9 0ZM17 0L17 2L16 2L16 3L15 3L15 5L16 5L16 7L17 7L17 9L18 9L18 7L19 7L19 6L20 6L20 8L21 8L21 9L20 9L20 10L21 10L21 11L20 11L20 12L17 12L17 13L19 13L19 14L18 14L18 15L19 15L19 16L16 16L16 15L15 15L15 16L14 16L14 17L15 17L15 18L13 18L13 21L15 21L15 19L16 19L16 18L18 18L18 17L20 17L20 18L21 18L21 17L23 17L23 18L25 18L25 17L23 17L23 16L24 16L24 15L23 15L23 14L22 14L22 13L23 13L23 12L25 12L25 11L24 11L24 9L22 9L22 8L25 8L25 10L26 10L26 11L27 11L27 13L29 13L29 12L28 12L28 11L31 11L31 12L32 12L32 11L33 11L33 8L32 8L32 9L31 9L31 8L28 8L28 9L26 9L26 8L25 8L25 2L24 2L24 0L21 0L21 1L20 1L20 0ZM19 1L19 5L18 5L18 6L17 6L17 7L18 7L18 6L19 6L19 5L21 5L21 8L22 8L22 5L23 5L23 7L24 7L24 4L22 4L22 1L21 1L21 4L20 4L20 1ZM11 2L11 4L12 4L12 3L13 3L13 2ZM17 2L17 3L18 3L18 2ZM16 4L16 5L17 5L17 4ZM12 5L12 6L11 6L11 8L12 8L12 6L13 6L13 5ZM8 6L8 7L9 7L9 6ZM8 8L8 9L9 9L9 8ZM11 9L11 10L12 10L12 9ZM28 9L28 10L27 10L27 11L28 11L28 10L31 10L31 11L32 11L32 10L31 10L31 9ZM2 10L2 11L1 11L1 12L3 12L3 10ZM16 10L16 11L17 11L17 10ZM22 10L22 11L21 11L21 12L20 12L20 13L22 13L22 11L23 11L23 10ZM11 11L11 13L12 13L12 12L13 12L13 11ZM15 13L15 14L16 14L16 13ZM21 14L21 15L22 15L22 14ZM28 15L28 16L30 16L30 15ZM15 16L15 17L16 17L16 16ZM27 17L27 18L28 18L28 17ZM31 17L31 18L32 18L32 17ZM6 19L6 20L7 20L7 19ZM9 21L9 22L10 22L10 21ZM21 21L21 22L23 22L23 21ZM18 22L18 23L17 23L17 25L16 25L16 26L15 26L15 24L12 24L12 26L11 26L11 27L10 27L10 28L12 28L12 26L13 26L13 27L14 27L14 26L15 26L15 27L17 27L17 28L16 28L16 29L17 29L17 30L18 30L18 29L17 29L17 28L18 28L18 26L17 26L17 25L19 25L19 24L20 24L20 26L22 26L22 27L23 27L23 28L24 28L24 27L23 27L23 25L22 25L22 24L23 24L23 23L21 23L21 24L20 24L20 22ZM25 22L25 23L26 23L26 22ZM6 23L6 24L7 24L7 23ZM18 23L18 24L19 24L19 23ZM13 25L13 26L14 26L14 25ZM25 25L25 28L28 28L28 25ZM26 26L26 27L27 27L27 26ZM29 26L29 29L28 29L28 31L27 31L27 32L28 32L28 31L29 31L29 29L30 29L30 26ZM19 27L19 28L21 28L21 27ZM10 29L10 30L12 30L12 29ZM19 29L19 31L18 31L18 32L22 32L22 31L21 31L21 30L22 30L22 29L21 29L21 30L20 30L20 29ZM26 29L26 30L27 30L27 29ZM25 31L25 32L26 32L26 31ZM32 31L32 32L33 32L33 31ZM0 0L0 7L7 7L7 0ZM1 1L1 6L6 6L6 1ZM2 2L2 5L5 5L5 2ZM26 0L26 7L33 7L33 0ZM27 1L27 6L32 6L32 1ZM28 2L28 5L31 5L31 2ZM0 26L0 33L7 33L7 26ZM1 27L1 32L6 32L6 27ZM2 28L2 31L5 31L5 28Z" fill="#000000"/></g></g></svg>
