<?xml version="1.0" encoding="UTF-8"?>
<svg xmlns="http://www.w3.org/2000/svg" version="1.1" width="250" height="250" viewBox="0 0 250 250"><rect x="0" y="0" width="250" height="250" fill="#ffffff"/><g transform="scale(7.576)"><g transform="translate(0,0)"><path fill-rule="evenodd" d="M10 0L10 2L11 2L11 0ZM12 0L12 1L13 1L13 0ZM14 0L14 1L15 1L15 4L14 4L14 3L13 3L13 2L12 2L12 4L14 4L14 5L15 5L15 6L14 6L14 7L15 7L15 9L14 9L14 8L13 8L13 9L12 9L12 7L13 7L13 5L11 5L11 6L10 6L10 4L11 4L11 3L8 3L8 4L9 4L9 5L8 5L8 7L9 7L9 8L6 8L6 9L8 9L8 10L9 10L9 9L10 9L10 11L11 11L11 9L12 9L12 10L13 10L13 9L14 9L14 10L15 10L15 12L17 12L17 14L15 14L15 13L14 13L14 12L13 12L13 11L12 11L12 13L14 13L14 14L15 14L15 15L14 15L14 16L15 16L15 17L17 17L17 18L24 18L24 17L25 17L25 18L26 18L26 19L28 19L28 20L27 20L27 21L25 21L25 19L24 19L24 20L23 20L23 19L19 19L19 20L23 20L23 22L22 22L22 23L19 23L19 22L21 22L21 21L17 21L17 20L16 20L16 18L14 18L14 17L12 17L12 15L13 15L13 14L11 14L11 15L8 15L8 14L6 14L6 13L8 13L8 11L7 11L7 10L5 10L5 8L0 8L0 9L4 9L4 10L5 10L5 11L7 11L7 12L6 12L6 13L5 13L5 15L4 15L4 16L5 16L5 17L3 17L3 16L2 16L2 15L0 15L0 18L1 18L1 17L3 17L3 18L2 18L2 19L1 19L1 20L0 20L0 25L1 25L1 22L2 22L2 23L3 23L3 24L4 24L4 25L7 25L7 24L8 24L8 21L7 21L7 20L6 20L6 19L7 19L7 18L6 18L6 19L5 19L5 20L4 20L4 18L5 18L5 17L7 17L7 16L6 16L6 15L8 15L8 16L9 16L9 18L11 18L11 17L12 17L12 18L13 18L13 19L12 19L12 21L13 21L13 20L14 20L14 21L17 21L17 22L18 22L18 23L19 23L19 26L20 26L20 27L21 27L21 28L22 28L22 29L20 29L20 28L19 28L19 27L18 27L18 28L19 28L19 30L15 30L15 31L14 31L14 32L15 32L15 33L16 33L16 31L18 31L18 32L19 32L19 30L21 30L21 31L20 31L20 33L21 33L21 32L22 32L22 33L23 33L23 32L24 32L24 33L25 33L25 32L24 32L24 31L27 31L27 32L28 32L28 33L29 33L29 31L30 31L30 32L31 32L31 33L32 33L32 32L31 32L31 31L30 31L30 30L33 30L33 27L32 27L32 26L33 26L33 24L32 24L32 26L31 26L31 25L30 25L30 24L31 24L31 23L32 23L32 22L33 22L33 21L32 21L32 20L31 20L31 19L32 19L32 18L33 18L33 17L32 17L32 16L31 16L31 15L32 15L32 14L33 14L33 13L31 13L31 15L30 15L30 13L29 13L29 10L28 10L28 8L27 8L27 9L26 9L26 8L24 8L24 9L23 9L23 6L22 6L22 4L23 4L23 5L24 5L24 4L25 4L25 3L24 3L24 2L25 2L25 1L24 1L24 0L21 0L21 2L19 2L19 3L16 3L16 1L15 1L15 0ZM17 0L17 1L20 1L20 0ZM8 1L8 2L9 2L9 1ZM23 1L23 2L22 2L22 3L21 3L21 4L22 4L22 3L23 3L23 2L24 2L24 1ZM19 3L19 4L15 4L15 5L16 5L16 6L15 6L15 7L16 7L16 8L18 8L18 6L17 6L17 5L19 5L19 8L20 8L20 9L15 9L15 10L19 10L19 11L20 11L20 9L22 9L22 8L21 8L21 7L22 7L22 6L21 6L21 7L20 7L20 3ZM9 6L9 7L10 7L10 6ZM11 6L11 7L12 7L12 6ZM16 6L16 7L17 7L17 6ZM24 6L24 7L25 7L25 6ZM10 8L10 9L11 9L11 8ZM29 8L29 9L30 9L30 8ZM31 8L31 10L33 10L33 9L32 9L32 8ZM24 9L24 10L21 10L21 11L22 11L22 12L20 12L20 14L17 14L17 15L16 15L16 16L17 16L17 17L19 17L19 15L20 15L20 14L22 14L22 15L24 15L24 16L25 16L25 17L28 17L28 18L29 18L29 17L30 17L30 19L29 19L29 20L30 20L30 21L28 21L28 24L30 24L30 23L29 23L29 22L30 22L30 21L31 21L31 20L30 20L30 19L31 19L31 16L30 16L30 15L29 15L29 13L28 13L28 16L26 16L26 14L25 14L25 13L27 13L27 12L28 12L28 11L27 11L27 10L25 10L25 9ZM1 10L1 11L3 11L3 12L4 12L4 11L3 11L3 10ZM24 10L24 11L23 11L23 12L22 12L22 13L23 13L23 14L24 14L24 15L25 15L25 14L24 14L24 13L23 13L23 12L24 12L24 11L25 11L25 12L26 12L26 11L25 11L25 10ZM17 11L17 12L18 12L18 11ZM30 11L30 12L31 12L31 11ZM1 12L1 13L2 13L2 14L4 14L4 13L2 13L2 12ZM9 12L9 13L11 13L11 12ZM10 16L10 17L11 17L11 16ZM20 16L20 17L22 17L22 16ZM28 16L28 17L29 17L29 16ZM8 19L8 20L9 20L9 21L10 21L10 19ZM14 19L14 20L15 20L15 19ZM2 20L2 21L3 21L3 20ZM4 21L4 22L3 22L3 23L4 23L4 24L5 24L5 23L4 23L4 22L7 22L7 21ZM24 21L24 22L23 22L23 23L24 23L24 24L27 24L27 22L25 22L25 21ZM11 22L11 23L9 23L9 24L11 24L11 25L12 25L12 26L13 26L13 27L12 27L12 29L13 29L13 28L14 28L14 29L15 29L15 28L17 28L17 26L15 26L15 25L17 25L17 24L16 24L16 22L15 22L15 23L14 23L14 24L15 24L15 25L12 25L12 23L13 23L13 22ZM6 23L6 24L7 24L7 23ZM20 24L20 25L22 25L22 26L21 26L21 27L22 27L22 26L24 26L24 25L22 25L22 24ZM8 25L8 27L9 27L9 25ZM25 25L25 28L28 28L28 25ZM29 25L29 28L30 28L30 29L31 29L31 28L30 28L30 27L31 27L31 26L30 26L30 25ZM26 26L26 27L27 27L27 26ZM14 27L14 28L15 28L15 27ZM23 27L23 29L22 29L22 30L23 30L23 31L24 31L24 27ZM8 28L8 33L9 33L9 30L10 30L10 29L11 29L11 28L10 28L10 29L9 29L9 28ZM25 29L25 30L28 30L28 31L29 31L29 30L28 30L28 29ZM11 30L11 31L10 31L10 33L12 33L12 31L13 31L13 30ZM0 0L0 7L7 7L7 0ZM1 1L1 6L6 6L6 1ZM2 2L2 5L5 5L5 2ZM26 0L26 7L33 7L33 0ZM27 1L27 6L32 6L32 1ZM28 2L28 5L31 5L31 2ZM0 26L0 33L7 33L7 26ZM1 27L1 32L6 32L6 27ZM2 28L2 31L5 31L5 28Z" fill="#000000"/></g></g></svg>
