<?xml version="1.0" encoding="UTF-8"?>
<svg xmlns="http://www.w3.org/2000/svg" version="1.1" width="250" height="250" viewBox="0 0 250 250"><rect x="0" y="0" width="250" height="250" fill="#ffffff"/><g transform="scale(7.576)"><g transform="translate(0,0)"><path fill-rule="evenodd" d="M9 0L9 1L8 1L8 2L9 2L9 3L8 3L8 4L10 4L10 7L11 7L11 4L12 4L12 5L13 5L13 4L14 4L14 5L15 5L15 6L14 6L14 7L15 7L15 8L17 8L17 9L20 9L20 11L19 11L19 10L15 10L15 9L14 9L14 8L13 8L13 6L12 6L12 9L14 9L14 10L15 10L15 11L18 11L18 12L15 12L15 13L14 13L14 12L13 12L13 13L12 13L12 11L13 11L13 10L11 10L11 11L10 11L10 9L11 9L11 8L6 8L6 9L9 9L9 11L8 11L8 10L6 10L6 11L8 11L8 12L6 12L6 13L5 13L5 12L4 12L4 11L2 11L2 10L3 10L3 9L5 9L5 8L0 8L0 9L1 9L1 10L0 10L0 12L1 12L1 13L2 13L2 12L3 12L3 13L4 13L4 14L6 14L6 15L3 15L3 14L1 14L1 15L0 15L0 16L1 16L1 15L3 15L3 17L4 17L4 16L5 16L5 19L4 19L4 18L3 18L3 19L1 19L1 18L2 18L2 17L0 17L0 19L1 19L1 20L0 20L0 25L1 25L1 21L2 21L2 20L3 20L3 19L4 19L4 20L6 20L6 21L3 21L3 23L2 23L2 24L3 24L3 25L5 25L5 24L6 24L6 25L7 25L7 24L8 24L8 27L9 27L9 23L7 23L7 22L10 22L10 21L9 21L9 19L10 19L10 18L11 18L11 21L12 21L12 22L13 22L13 23L12 23L12 25L13 25L13 24L14 24L14 25L15 25L15 24L17 24L17 22L14 22L14 21L12 21L12 19L13 19L13 18L11 18L11 17L10 17L10 18L9 18L9 17L7 17L7 16L11 16L11 15L10 15L10 14L11 14L11 13L12 13L12 14L13 14L13 13L14 13L14 14L15 14L15 17L14 17L14 16L13 16L13 15L12 15L12 17L14 17L14 18L15 18L15 19L14 19L14 20L15 20L15 21L17 21L17 20L16 20L16 18L15 18L15 17L17 17L17 16L16 16L16 14L15 14L15 13L17 13L17 14L20 14L20 15L19 15L19 18L17 18L17 19L19 19L19 20L23 20L23 22L22 22L22 23L19 23L19 25L17 25L17 26L15 26L15 27L14 27L14 28L16 28L16 27L17 27L17 26L18 26L18 28L19 28L19 29L18 29L18 31L19 31L19 30L21 30L21 31L20 31L20 33L21 33L21 32L22 32L22 33L23 33L23 32L24 32L24 33L25 33L25 32L24 32L24 31L27 31L27 32L28 32L28 33L29 33L29 31L30 31L30 32L31 32L31 33L32 33L32 32L31 32L31 31L32 31L32 30L31 30L31 29L30 29L30 28L31 28L31 27L32 27L32 26L33 26L33 24L32 24L32 26L31 26L31 25L30 25L30 24L31 24L31 23L32 23L32 22L33 22L33 21L32 21L32 20L31 20L31 19L32 19L32 18L33 18L33 17L32 17L32 16L31 16L31 15L32 15L32 14L33 14L33 13L31 13L31 15L30 15L30 13L29 13L29 10L28 10L28 8L27 8L27 9L26 9L26 8L24 8L24 9L23 9L23 6L22 6L22 4L23 4L23 5L24 5L24 4L25 4L25 3L24 3L24 2L25 2L25 1L24 1L24 0L21 0L21 2L19 2L19 3L16 3L16 1L15 1L15 0L14 0L14 1L15 1L15 4L14 4L14 3L13 3L13 4L12 4L12 2L13 2L13 1L11 1L11 2L10 2L10 0ZM17 0L17 1L20 1L20 0ZM23 1L23 2L22 2L22 3L21 3L21 4L22 4L22 3L23 3L23 2L24 2L24 1ZM10 3L10 4L11 4L11 3ZM19 3L19 4L15 4L15 5L19 5L19 8L20 8L20 9L22 9L22 8L21 8L21 7L22 7L22 6L21 6L21 7L20 7L20 3ZM8 5L8 7L9 7L9 5ZM15 6L15 7L16 7L16 6ZM17 6L17 8L18 8L18 6ZM24 6L24 7L25 7L25 6ZM29 8L29 9L30 9L30 8ZM31 8L31 10L33 10L33 9L32 9L32 8ZM24 9L24 10L21 10L21 11L22 11L22 12L20 12L20 14L22 14L22 15L24 15L24 16L25 16L25 17L24 17L24 18L19 18L19 19L23 19L23 20L24 20L24 19L25 19L25 21L24 21L24 22L23 22L23 23L24 23L24 24L27 24L27 22L25 22L25 21L27 21L27 20L28 20L28 19L26 19L26 18L25 18L25 17L28 17L28 18L29 18L29 17L30 17L30 19L29 19L29 20L30 20L30 21L28 21L28 24L30 24L30 23L29 23L29 22L30 22L30 21L31 21L31 20L30 20L30 19L31 19L31 16L30 16L30 15L29 15L29 13L28 13L28 16L26 16L26 14L25 14L25 13L27 13L27 12L28 12L28 11L27 11L27 10L25 10L25 9ZM24 10L24 11L23 11L23 12L22 12L22 13L23 13L23 14L24 14L24 15L25 15L25 14L24 14L24 13L23 13L23 12L24 12L24 11L25 11L25 12L26 12L26 11L25 11L25 10ZM1 11L1 12L2 12L2 11ZM30 11L30 12L31 12L31 11ZM8 12L8 13L6 13L6 14L7 14L7 15L6 15L6 16L7 16L7 15L8 15L8 14L10 14L10 13L11 13L11 12L10 12L10 13L9 13L9 12ZM20 16L20 17L22 17L22 16ZM28 16L28 17L29 17L29 16ZM6 17L6 18L7 18L7 17ZM6 19L6 20L7 20L7 21L6 21L6 22L7 22L7 21L8 21L8 19ZM18 21L18 22L21 22L21 21ZM3 23L3 24L5 24L5 23ZM6 23L6 24L7 24L7 23ZM10 23L10 24L11 24L11 23ZM14 23L14 24L15 24L15 23ZM20 24L20 25L22 25L22 26L21 26L21 27L20 27L20 26L19 26L19 28L20 28L20 29L22 29L22 30L23 30L23 31L24 31L24 27L23 27L23 29L22 29L22 28L21 28L21 27L22 27L22 26L24 26L24 25L22 25L22 24ZM10 25L10 30L9 30L9 28L8 28L8 33L9 33L9 32L10 32L10 30L11 30L11 29L12 29L12 30L13 30L13 31L12 31L12 33L13 33L13 32L14 32L14 33L17 33L17 31L16 31L16 30L17 30L17 29L12 29L12 27L13 27L13 26L11 26L11 25ZM25 25L25 28L28 28L28 25ZM29 25L29 28L30 28L30 27L31 27L31 26L30 26L30 25ZM26 26L26 27L27 27L27 26ZM25 29L25 30L28 30L28 31L29 31L29 30L28 30L28 29ZM30 30L30 31L31 31L31 30ZM14 31L14 32L15 32L15 31ZM0 0L0 7L7 7L7 0ZM1 1L1 6L6 6L6 1ZM2 2L2 5L5 5L5 2ZM26 0L26 7L33 7L33 0ZM27 1L27 6L32 6L32 1ZM28 2L28 5L31 5L31 2ZM0 26L0 33L7 33L7 26ZM1 27L1 32L6 32L6 27ZM2 28L2 31L5 31L5 28Z" fill="#000000"/></g></g></svg>
